<svg width="210" height="19" viewBox="0 0 210 19" fill="none" xmlns="http://www.w3.org/2000/svg">
<path d="M17.9723 11.0552C17.9059 11.9731 17.566 12.6958 16.9527 13.2231C16.3434 13.7505 15.5387 14.0142 14.5387 14.0142C13.4449 14.0142 12.5836 13.647 11.9547 12.9126C11.3297 12.1743 11.0172 11.1626 11.0172 9.87744V9.35596C11.0172 8.53564 11.1617 7.81299 11.4508 7.18799C11.7398 6.56299 12.1519 6.08447 12.6871 5.75244C13.2262 5.4165 13.8512 5.24854 14.5621 5.24854C15.5465 5.24854 16.3394 5.51221 16.941 6.03955C17.5426 6.56689 17.8902 7.30713 17.984 8.26025H16.2262C16.1832 7.70947 16.0289 7.31104 15.7633 7.06494C15.5016 6.81494 15.1012 6.68994 14.5621 6.68994C13.9762 6.68994 13.5367 6.90088 13.2437 7.32275C12.9547 7.74072 12.8062 8.39111 12.7984 9.27393V9.91846C12.7984 10.8403 12.9371 11.5142 13.2144 11.9399C13.4957 12.3657 13.9371 12.5786 14.5387 12.5786C15.0816 12.5786 15.4859 12.4556 15.7516 12.2095C16.0211 11.9595 16.1754 11.5747 16.2144 11.0552H17.9723ZM18.8516 10.6685C18.8516 10.0396 18.9727 9.479 19.2148 8.98682C19.457 8.49463 19.8047 8.11377 20.2578 7.84424C20.7148 7.57471 21.2441 7.43994 21.8457 7.43994C22.7012 7.43994 23.3984 7.70166 23.9375 8.2251C24.4805 8.74854 24.7832 9.45947 24.8457 10.3579L24.8574 10.7915C24.8574 11.7642 24.5859 12.5454 24.043 13.1353C23.5 13.7212 22.7715 14.0142 21.8574 14.0142C20.9434 14.0142 20.2129 13.7212 19.666 13.1353C19.123 12.5493 18.8516 11.7524 18.8516 10.7446V10.6685ZM20.5449 10.7915C20.5449 11.3931 20.6582 11.854 20.8848 12.1743C21.1113 12.4907 21.4355 12.6489 21.8574 12.6489C22.2676 12.6489 22.5879 12.4927 22.8184 12.1802C23.0488 11.8638 23.1641 11.3599 23.1641 10.6685C23.1641 10.0786 23.0488 9.62158 22.8184 9.29736C22.5879 8.97314 22.2637 8.81104 21.8457 8.81104C21.4316 8.81104 21.1113 8.97314 20.8848 9.29736C20.6582 9.61768 20.5449 10.1157 20.5449 10.7915ZM31.7074 10.7856C31.7074 11.7622 31.4848 12.5454 31.0394 13.1353C30.598 13.7212 30.0004 14.0142 29.2465 14.0142C28.6059 14.0142 28.0883 13.7915 27.6937 13.3462V16.3345H26.0004V7.55713H27.5707L27.6293 8.17822C28.0394 7.68604 28.5746 7.43994 29.2348 7.43994C30.016 7.43994 30.6234 7.729 31.057 8.30713C31.4906 8.88525 31.7074 9.68213 31.7074 10.6978V10.7856ZM30.0141 10.6626C30.0141 10.0728 29.9086 9.61768 29.6976 9.29736C29.4906 8.97705 29.1879 8.81689 28.7894 8.81689C28.2582 8.81689 27.893 9.02002 27.6937 9.42627V12.022C27.9008 12.4399 28.2699 12.6489 28.8012 12.6489C29.6098 12.6489 30.0141 11.9868 30.0141 10.6626ZM35.159 11.5005L36.3309 7.55713H38.1473L35.5984 14.8813L35.4578 15.2153C35.0789 16.0435 34.4539 16.4575 33.5828 16.4575C33.3367 16.4575 33.0867 16.4204 32.8328 16.3462V15.063L33.0906 15.0688C33.4109 15.0688 33.6492 15.02 33.8055 14.9224C33.9656 14.8247 34.0906 14.6626 34.1805 14.436L34.3797 13.9146L32.159 7.55713H33.9812L35.159 11.5005ZM44.4289 11.5942L45.2609 7.55713H46.8957L45.2785 13.897H43.8605L42.6594 9.90674L41.4582 13.897H40.0461L38.4289 7.55713H40.0637L40.8898 11.5884L42.05 7.55713H43.2746L44.4289 11.5942ZM51.4019 9.14502C51.1715 9.11377 50.9684 9.09814 50.7926 9.09814C50.1519 9.09814 49.732 9.31494 49.5328 9.74854V13.897H47.8394V7.55713H49.4391L49.4859 8.31299C49.8258 7.73096 50.2965 7.43994 50.898 7.43994C51.0855 7.43994 51.2613 7.46533 51.4254 7.51611L51.4019 9.14502ZM54.1094 13.897H52.4101V7.55713H54.1094V13.897ZM52.3105 5.9165C52.3105 5.6626 52.3945 5.45361 52.5625 5.28955C52.7344 5.12549 52.9668 5.04346 53.2598 5.04346C53.5488 5.04346 53.7793 5.12549 53.9512 5.28955C54.123 5.45361 54.209 5.6626 54.209 5.9165C54.209 6.17432 54.1211 6.38525 53.9453 6.54932C53.7734 6.71338 53.5449 6.79541 53.2598 6.79541C52.9746 6.79541 52.7441 6.71338 52.5684 6.54932C52.3965 6.38525 52.3105 6.17432 52.3105 5.9165ZM55.3637 10.6802C55.3637 9.70752 55.5941 8.92432 56.0551 8.33057C56.5199 7.73682 57.1449 7.43994 57.9301 7.43994C58.6254 7.43994 59.1664 7.67822 59.5531 8.15479L59.6234 7.55713H61.1586V13.686C61.1586 14.2407 61.0316 14.7231 60.7777 15.1333C60.5277 15.5435 60.1742 15.856 59.7172 16.0708C59.2602 16.2856 58.725 16.3931 58.1117 16.3931C57.6469 16.3931 57.1937 16.2993 56.7523 16.1118C56.3109 15.9282 55.9769 15.6899 55.7504 15.397L56.5004 14.3657C56.9223 14.8384 57.434 15.0747 58.0355 15.0747C58.4848 15.0747 58.8344 14.9536 59.0844 14.7114C59.3344 14.4731 59.4594 14.1333 59.4594 13.6919V13.3521C59.0687 13.7935 58.5551 14.0142 57.9184 14.0142C57.1566 14.0142 56.5394 13.7173 56.0668 13.1235C55.598 12.5259 55.3637 11.7349 55.3637 10.7505V10.6802ZM57.057 10.8032C57.057 11.3774 57.1723 11.8286 57.4027 12.1567C57.6332 12.481 57.9496 12.6431 58.3519 12.6431C58.8676 12.6431 59.2367 12.4497 59.4594 12.063V9.39697C59.2328 9.01025 58.8676 8.81689 58.3637 8.81689C57.9574 8.81689 57.6371 8.98291 57.4027 9.31494C57.1723 9.64697 57.057 10.1431 57.057 10.8032ZM64.2176 8.24854C64.6668 7.70947 65.2312 7.43994 65.9109 7.43994C67.2859 7.43994 67.9832 8.23877 68.0027 9.83643V13.897H66.3094V9.8833C66.3094 9.52002 66.2312 9.25244 66.075 9.08057C65.9187 8.90479 65.659 8.81689 65.2957 8.81689C64.7996 8.81689 64.4402 9.0083 64.2176 9.39111V13.897H62.5242V4.89697H64.2176V8.24854ZM71.4074 5.99854V7.55713H72.4914V8.79932H71.4074V11.9634C71.4074 12.1978 71.4523 12.3657 71.5422 12.4673C71.632 12.5688 71.8039 12.6196 72.0578 12.6196C72.2453 12.6196 72.4113 12.606 72.5559 12.5786V13.8618C72.2238 13.9634 71.882 14.0142 71.5305 14.0142C70.343 14.0142 69.7375 13.4146 69.7141 12.2153V8.79932H68.7883V7.55713H69.7141V5.99854H71.4074ZM82.4004 13.897H76.5527V12.7368L79.3125 9.79541C79.6914 9.38135 79.9707 9.02002 80.1504 8.71143C80.334 8.40283 80.4258 8.10986 80.4258 7.83252C80.4258 7.45361 80.3301 7.15674 80.1387 6.94189C79.9473 6.72314 79.6738 6.61377 79.3184 6.61377C78.9355 6.61377 78.6328 6.74658 78.4101 7.01221C78.1914 7.27393 78.082 7.61963 78.082 8.04932H76.3828C76.3828 7.52979 76.5059 7.05518 76.7519 6.62549C77.0019 6.1958 77.3535 5.85986 77.8066 5.61768C78.2598 5.37158 78.7734 5.24854 79.3476 5.24854C80.2266 5.24854 80.9082 5.45947 81.3926 5.88135C81.8809 6.30322 82.125 6.89893 82.125 7.66846C82.125 8.09033 82.0156 8.52002 81.7969 8.95752C81.5781 9.39502 81.2031 9.90479 80.6719 10.4868L78.7324 12.5317H82.4004V13.897ZM89.2855 10.3696C89.2855 11.5493 89.0414 12.4517 88.5531 13.0767C88.0648 13.7017 87.35 14.0142 86.4086 14.0142C85.4789 14.0142 84.768 13.7075 84.2758 13.0942C83.7836 12.481 83.5316 11.6021 83.5199 10.4575V8.88721C83.5199 7.6958 83.766 6.7915 84.2582 6.17432C84.7543 5.55713 85.4672 5.24854 86.3969 5.24854C87.3266 5.24854 88.0375 5.55518 88.5297 6.16846C89.0219 6.77783 89.2738 7.65479 89.2855 8.79932V10.3696ZM87.5922 8.64697C87.5922 7.93994 87.4945 7.42627 87.2992 7.10596C87.1078 6.78174 86.807 6.61963 86.3969 6.61963C85.9984 6.61963 85.7035 6.77393 85.5121 7.08252C85.3246 7.38721 85.225 7.86572 85.2133 8.51807V10.5923C85.2133 11.2876 85.307 11.8052 85.4945 12.145C85.6859 12.481 85.9906 12.6489 86.4086 12.6489C86.8226 12.6489 87.1215 12.4868 87.3051 12.1626C87.4887 11.8384 87.5844 11.3423 87.5922 10.6743V8.64697ZM96.3816 13.897H90.534V12.7368L93.2937 9.79541C93.6727 9.38135 93.952 9.02002 94.1316 8.71143C94.3152 8.40283 94.407 8.10986 94.407 7.83252C94.407 7.45361 94.3113 7.15674 94.1199 6.94189C93.9285 6.72314 93.6551 6.61377 93.2996 6.61377C92.9168 6.61377 92.6141 6.74658 92.3914 7.01221C92.1727 7.27393 92.0633 7.61963 92.0633 8.04932H90.3641C90.3641 7.52979 90.4871 7.05518 90.7332 6.62549C90.9832 6.1958 91.3348 5.85986 91.7879 5.61768C92.241 5.37158 92.7547 5.24854 93.3289 5.24854C94.2078 5.24854 94.8895 5.45947 95.3738 5.88135C95.8621 6.30322 96.1062 6.89893 96.1062 7.66846C96.1062 8.09033 95.9969 8.52002 95.7781 8.95752C95.5594 9.39502 95.1844 9.90479 94.6531 10.4868L92.7137 12.5317H96.3816V13.897ZM103.267 10.3696C103.267 11.5493 103.023 12.4517 102.534 13.0767C102.046 13.7017 101.331 14.0142 100.39 14.0142C99.4602 14.0142 98.7492 13.7075 98.257 13.0942C97.7648 12.481 97.5129 11.6021 97.5012 10.4575V8.88721C97.5012 7.6958 97.7473 6.7915 98.2394 6.17432C98.7355 5.55713 99.4484 5.24854 100.378 5.24854C101.308 5.24854 102.019 5.55518 102.511 6.16846C103.003 6.77783 103.255 7.65479 103.267 8.79932V10.3696ZM101.573 8.64697C101.573 7.93994 101.476 7.42627 101.28 7.10596C101.089 6.78174 100.788 6.61963 100.378 6.61963C99.9797 6.61963 99.6848 6.77393 99.4934 7.08252C99.3059 7.38721 99.2062 7.86572 99.1945 8.51807V10.5923C99.1945 11.2876 99.2883 11.8052 99.4758 12.145C99.6672 12.481 99.9719 12.6489 100.39 12.6489C100.804 12.6489 101.103 12.4868 101.286 12.1626C101.47 11.8384 101.566 11.3423 101.573 10.6743V8.64697ZM107.785 13.897V5.36572H110.773C111.809 5.36572 112.594 5.56494 113.129 5.96338C113.664 6.35791 113.932 6.93799 113.932 7.70361C113.932 8.12158 113.824 8.49072 113.609 8.81104C113.395 9.12744 113.096 9.35986 112.713 9.5083C113.15 9.61768 113.494 9.83838 113.744 10.1704C113.998 10.5024 114.125 10.9087 114.125 11.3892C114.125 12.2095 113.863 12.8306 113.34 13.2524C112.816 13.6743 112.07 13.8892 111.102 13.897H107.785ZM109.543 10.1821V12.4849H111.049C111.463 12.4849 111.785 12.3872 112.016 12.1919C112.25 11.9927 112.367 11.7192 112.367 11.3716C112.367 10.5903 111.963 10.1938 111.154 10.1821H109.543ZM109.543 8.93994H110.844C111.73 8.92432 112.174 8.5708 112.174 7.87939C112.174 7.49268 112.061 7.21533 111.834 7.04736C111.611 6.87549 111.258 6.78955 110.773 6.78955H109.543V8.93994ZM118.356 14.0142C117.426 14.0142 116.668 13.729 116.082 13.1587C115.5 12.5884 115.209 11.8286 115.209 10.8794V10.7153C115.209 10.0786 115.332 9.51025 115.579 9.01025C115.825 8.50635 116.172 8.11963 116.621 7.8501C117.075 7.57666 117.59 7.43994 118.168 7.43994C119.036 7.43994 119.717 7.71338 120.213 8.26025C120.713 8.80713 120.963 9.58252 120.963 10.5864V11.2778H116.926C116.981 11.6919 117.145 12.0239 117.418 12.2739C117.696 12.5239 118.045 12.6489 118.467 12.6489C119.12 12.6489 119.629 12.4126 119.996 11.9399L120.829 12.8716C120.575 13.231 120.231 13.5122 119.797 13.7153C119.364 13.9146 118.883 14.0142 118.356 14.0142ZM118.162 8.81104C117.827 8.81104 117.553 8.92432 117.342 9.15088C117.135 9.37744 117.002 9.70166 116.944 10.1235H119.299V9.98877C119.291 9.61377 119.19 9.32471 118.995 9.12158C118.799 8.91455 118.522 8.81104 118.162 8.81104ZM123.817 13.897H122.118V4.89697H123.817V13.897ZM127.105 13.897H125.405V4.89697H127.105V13.897ZM132.279 13.897C132.201 13.7446 132.144 13.5552 132.109 13.3286C131.699 13.7856 131.166 14.0142 130.509 14.0142C129.888 14.0142 129.373 13.8345 128.962 13.4751C128.556 13.1157 128.353 12.6626 128.353 12.1157C128.353 11.4438 128.601 10.9282 129.097 10.5688C129.597 10.2095 130.318 10.0278 131.259 10.0239H132.039V9.66064C132.039 9.36768 131.962 9.1333 131.81 8.95752C131.662 8.78174 131.425 8.69385 131.101 8.69385C130.816 8.69385 130.591 8.76221 130.427 8.89893C130.267 9.03564 130.187 9.22314 130.187 9.46143H128.494C128.494 9.09424 128.607 8.75439 128.834 8.44189C129.06 8.12939 129.38 7.88525 129.795 7.70947C130.209 7.52979 130.673 7.43994 131.189 7.43994C131.97 7.43994 132.589 7.63721 133.046 8.03174C133.507 8.42236 133.738 8.97314 133.738 9.68408V12.4321C133.742 13.0337 133.826 13.4888 133.99 13.7974V13.897H132.279ZM130.879 12.7192C131.129 12.7192 131.359 12.6646 131.57 12.5552C131.781 12.4419 131.937 12.2915 132.039 12.104V11.0142H131.406C130.558 11.0142 130.107 11.3071 130.052 11.8931L130.046 11.9927C130.046 12.2036 130.121 12.3774 130.269 12.5142C130.418 12.6509 130.621 12.7192 130.879 12.7192ZM145.346 9.82471C145.346 10.6646 145.198 11.4009 144.901 12.0337C144.604 12.6665 144.178 13.1548 143.623 13.4985C143.073 13.8423 142.44 14.0142 141.725 14.0142C141.018 14.0142 140.387 13.8442 139.832 13.5044C139.278 13.1646 138.848 12.6802 138.543 12.0513C138.239 11.4185 138.084 10.6919 138.08 9.87158V9.44971C138.08 8.60986 138.231 7.87158 138.532 7.23486C138.836 6.59424 139.264 6.104 139.815 5.76416C140.37 5.42041 141.002 5.24854 141.713 5.24854C142.424 5.24854 143.055 5.42041 143.606 5.76416C144.161 6.104 144.588 6.59424 144.889 7.23486C145.194 7.87158 145.346 8.60791 145.346 9.44385V9.82471ZM143.565 9.43799C143.565 8.54346 143.405 7.86377 143.084 7.39893C142.764 6.93408 142.307 6.70166 141.713 6.70166C141.123 6.70166 140.668 6.93213 140.348 7.39307C140.028 7.8501 139.866 8.52197 139.862 9.40869V9.82471C139.862 10.6958 140.022 11.3716 140.342 11.8521C140.662 12.3325 141.123 12.5728 141.725 12.5728C142.315 12.5728 142.768 12.3423 143.084 11.8813C143.401 11.4165 143.561 10.7407 143.565 9.854V9.43799ZM148.171 7.55713L148.223 8.28955C148.677 7.72314 149.284 7.43994 150.046 7.43994C150.718 7.43994 151.218 7.63721 151.546 8.03174C151.874 8.42627 152.042 9.01611 152.05 9.80127V13.897H150.356V9.84229C150.356 9.48291 150.278 9.22314 150.122 9.06299C149.966 8.89893 149.706 8.81689 149.343 8.81689C148.866 8.81689 148.509 9.02002 148.27 9.42627V13.897H146.577V7.55713H148.171ZM153.175 10.6685C153.175 10.0396 153.296 9.479 153.538 8.98682C153.78 8.49463 154.128 8.11377 154.581 7.84424C155.038 7.57471 155.568 7.43994 156.169 7.43994C157.025 7.43994 157.722 7.70166 158.261 8.2251C158.804 8.74854 159.107 9.45947 159.169 10.3579L159.181 10.7915C159.181 11.7642 158.909 12.5454 158.366 13.1353C157.823 13.7212 157.095 14.0142 156.181 14.0142C155.267 14.0142 154.536 13.7212 153.989 13.1353C153.446 12.5493 153.175 11.7524 153.175 10.7446V10.6685ZM154.868 10.7915C154.868 11.3931 154.982 11.854 155.208 12.1743C155.435 12.4907 155.759 12.6489 156.181 12.6489C156.591 12.6489 156.911 12.4927 157.142 12.1802C157.372 11.8638 157.487 11.3599 157.487 10.6685C157.487 10.0786 157.372 9.62158 157.142 9.29736C156.911 8.97314 156.587 8.81104 156.169 8.81104C155.755 8.81104 155.435 8.97314 155.208 9.29736C154.982 9.61768 154.868 10.1157 154.868 10.7915ZM162.117 7.55713V14.2427C162.117 14.9419 161.931 15.4849 161.56 15.8716C161.189 16.2622 160.654 16.4575 159.955 16.4575C159.662 16.4575 159.382 16.4243 159.117 16.3579V15.0161C159.32 15.0513 159.498 15.0688 159.65 15.0688C160.162 15.0688 160.418 14.7974 160.418 14.2544V7.55713H162.117ZM160.283 5.9165C160.283 5.6626 160.367 5.45361 160.535 5.28955C160.707 5.12549 160.939 5.04346 161.232 5.04346C161.525 5.04346 161.755 5.12549 161.923 5.28955C162.095 5.45361 162.181 5.6626 162.181 5.9165C162.181 6.17432 162.093 6.38525 161.918 6.54932C161.746 6.71338 161.517 6.79541 161.232 6.79541C160.947 6.79541 160.716 6.71338 160.541 6.54932C160.369 6.38525 160.283 6.17432 160.283 5.9165ZM165.328 13.897H163.629V7.55713H165.328V13.897ZM163.529 5.9165C163.529 5.6626 163.613 5.45361 163.781 5.28955C163.953 5.12549 164.186 5.04346 164.479 5.04346C164.768 5.04346 164.998 5.12549 165.17 5.28955C165.342 5.45361 165.428 5.6626 165.428 5.9165C165.428 6.17432 165.34 6.38525 165.164 6.54932C164.992 6.71338 164.764 6.79541 164.479 6.79541C164.193 6.79541 163.963 6.71338 163.787 6.54932C163.615 6.38525 163.529 6.17432 163.529 5.9165ZM169.746 14.0142C168.817 14.0142 168.059 13.729 167.473 13.1587C166.891 12.5884 166.6 11.8286 166.6 10.8794V10.7153C166.6 10.0786 166.723 9.51025 166.969 9.01025C167.215 8.50635 167.563 8.11963 168.012 7.8501C168.465 7.57666 168.981 7.43994 169.559 7.43994C170.426 7.43994 171.108 7.71338 171.604 8.26025C172.104 8.80713 172.354 9.58252 172.354 10.5864V11.2778H168.317C168.371 11.6919 168.536 12.0239 168.809 12.2739C169.086 12.5239 169.436 12.6489 169.858 12.6489C170.51 12.6489 171.02 12.4126 171.387 11.9399L172.219 12.8716C171.965 13.231 171.621 13.5122 171.188 13.7153C170.754 13.9146 170.274 14.0142 169.746 14.0142ZM169.553 8.81104C169.217 8.81104 168.944 8.92432 168.733 9.15088C168.526 9.37744 168.393 9.70166 168.334 10.1235H170.69V9.98877C170.682 9.61377 170.58 9.32471 170.385 9.12158C170.19 8.91455 169.912 8.81104 169.553 8.81104ZM173.509 13.0649C173.509 12.7954 173.598 12.5767 173.778 12.4087C173.962 12.2407 174.19 12.1567 174.464 12.1567C174.741 12.1567 174.97 12.2407 175.149 12.4087C175.333 12.5767 175.425 12.7954 175.425 13.0649C175.425 13.3306 175.335 13.5474 175.155 13.7153C174.975 13.8794 174.745 13.9614 174.464 13.9614C174.186 13.9614 173.958 13.8794 173.778 13.7153C173.598 13.5474 173.509 13.3306 173.509 13.0649ZM179.65 12.6489C179.962 12.6489 180.216 12.563 180.411 12.3911C180.607 12.2192 180.708 11.9907 180.716 11.7056H182.304C182.3 12.1353 182.183 12.5298 181.952 12.8892C181.722 13.2446 181.405 13.522 181.003 13.7212C180.605 13.9165 180.163 14.0142 179.679 14.0142C178.773 14.0142 178.058 13.7271 177.534 13.1528C177.011 12.5747 176.749 11.7778 176.749 10.7622V10.6509C176.749 9.67432 177.009 8.89502 177.529 8.31299C178.048 7.73096 178.761 7.43994 179.667 7.43994C180.46 7.43994 181.095 7.6665 181.571 8.11963C182.052 8.56885 182.296 9.16846 182.304 9.91846H180.716C180.708 9.59033 180.607 9.32471 180.411 9.12158C180.216 8.91455 179.958 8.81104 179.638 8.81104C179.243 8.81104 178.945 8.95557 178.741 9.24463C178.542 9.52979 178.443 9.99463 178.443 10.6392V10.8149C178.443 11.4673 178.542 11.936 178.741 12.2212C178.941 12.5063 179.243 12.6489 179.65 12.6489ZM183.107 10.6685C183.107 10.0396 183.228 9.479 183.47 8.98682C183.712 8.49463 184.06 8.11377 184.513 7.84424C184.97 7.57471 185.5 7.43994 186.101 7.43994C186.957 7.43994 187.654 7.70166 188.193 8.2251C188.736 8.74854 189.039 9.45947 189.101 10.3579L189.113 10.7915C189.113 11.7642 188.841 12.5454 188.298 13.1353C187.755 13.7212 187.027 14.0142 186.113 14.0142C185.199 14.0142 184.468 13.7212 183.921 13.1353C183.379 12.5493 183.107 11.7524 183.107 10.7446V10.6685ZM184.8 10.7915C184.8 11.3931 184.914 11.854 185.14 12.1743C185.367 12.4907 185.691 12.6489 186.113 12.6489C186.523 12.6489 186.843 12.4927 187.074 12.1802C187.304 11.8638 187.42 11.3599 187.42 10.6685C187.42 10.0786 187.304 9.62158 187.074 9.29736C186.843 8.97314 186.519 8.81104 186.101 8.81104C185.687 8.81104 185.367 8.97314 185.14 9.29736C184.914 9.61768 184.8 10.1157 184.8 10.7915ZM191.844 7.55713L191.896 8.26611C192.346 7.71533 192.953 7.43994 193.719 7.43994C194.535 7.43994 195.096 7.76221 195.4 8.40674C195.846 7.76221 196.48 7.43994 197.305 7.43994C197.992 7.43994 198.504 7.64111 198.84 8.04346C199.176 8.44189 199.344 9.04346 199.344 9.84814V13.897H197.645V9.854C197.645 9.49463 197.574 9.23291 197.434 9.06885C197.293 8.90088 197.045 8.81689 196.689 8.81689C196.182 8.81689 195.83 9.05908 195.635 9.54346L195.641 13.897H193.947V9.85986C193.947 9.49268 193.875 9.22705 193.73 9.06299C193.586 8.89893 193.34 8.81689 192.992 8.81689C192.512 8.81689 192.164 9.01611 191.949 9.41455V13.897H190.256V7.55713H191.844Z" fill="#5C5C5C"/>
</svg>
